<svg xmlns:xlink="http://www.w3.org/1999/xlink" xmlns="http://www.w3.org/2000/svg" width="300" height="148" preserveAspectRatio="xMidYMid meet" viewBox="0.000002294954811077332 -5.061509433801348e-9 300.0000305175781 67.8862533569336" overflow="visible"><defs id="SvgjsDefs1165"><linearGradient id="SvgjsLinearGradientl_-QoO8g6" gradientUnits="userSpaceOnUse" x1="-2.1864254474639675" y1="96.18642640113829" x2="90.1864230632782" y2="3.81357789039611"><stop id="SvgjsStop1168" stop-color="#6b6b6b" offset="0.05"></stop><stop id="SvgjsStop1169" stop-color="#2b2b2b" offset="0.95"></stop></linearGradient></defs><g id="SvgjsG1166" transform="scale(0.5401997246721468)" opacity="1"><g id="SvgjsG1170" class="XZM9CykUz" transform="translate(-0.8950354702485017, -1.1884592596400265) scale(1.280457130241542)" light-content="false" non-strokable="false" fill="#FFFFFF"><path d="M47 1.732l37.301 21.536a6 6 0 0 1 3 5.196v43.072a6 6 0 0 1-3 5.196L47 98.268a6 6 0 0 1-6 0L3.699 76.732a6 6 0 0 1-3-5.196V28.464a6 6 0 0 1 3-5.196L41 1.732a6 6 0 0 1 6 0z" fill="#FFFFFF"></path></g><g id="SvgjsG1171" class="f4hOnUBiMs" transform="translate(12.842580297321879, 20.2344590192874) scale(0.852015818068264)" light-content="true" non-strokable="false" fill="#2B2B2B"><path d="M79.5 42.5c-4.5 0-8.2 3.2-9.102 7.398h-5.601L52.602 37.8l5.601-5.601c1.2.699 2.602 1.199 4.102 1.199 4.3 0 7.898-3.5 7.898-7.898 0-4.301-3.5-7.899-7.898-7.899-4.3 0-7.898 3.5-7.898 7.899 0 1.5.398 2.898 1.199 4.101L50 35.2l-3.398-3.4c-.102-.102-.2-.102-.2-.2l-9.199-9.199c-.199-.2-.398-.3-.601-.398C36.399 22 36.2 22 36 22h-6.398c-.8-4.2-4.602-7.4-9.102-7.4-5.101 0-9.3 4.102-9.3 9.301 0 5.102 4.101 9.3 9.3 9.3 4.5 0 8.2-3.198 9.102-7.397h5.602l18.102 18.102c.101.101.199.101.199.199l9.199 9.199c.2.2.398.3.602.398.199.102.398.102.699.102h6.398c.8 4.2 4.602 7.398 9.102 7.398 5.101 0 9.3-4.101 9.3-9.3-.003-5.204-4.203-9.403-9.304-9.403zm-59 15c4.5 0 8.2-3.2 9.102-7.398h5.601l12.2 12.199-5.602 5.601c-1.2-.699-2.602-1.199-4.102-1.199-4.3 0-7.898 3.5-7.898 7.898 0 4.301 3.5 7.899 7.898 7.899 4.3 0 7.898-3.5 7.898-7.899 0-1.5-.398-2.898-1.199-4.101L50 64.898l3.398 3.399c.102.101.2.101.2.199l9.199 9.199c.199.2.398.3.601.398C63.601 78 63.801 78 64 78h6.398c.8 4.199 4.602 7.398 9.102 7.398 5.101 0 9.3-4.101 9.3-9.3 0-5.102-4.101-9.301-9.3-9.301-4.5 0-8.2 3.199-9.102 7.398h-5.601L46.699 56.199c-.102-.102-.2-.102-.2-.2L37.3 46.8c-.2-.199-.398-.3-.601-.398-.2-.102-.399-.102-.7-.102h-6.398c-.902-4.199-4.602-7.3-9.102-7.3-5.101 0-9.3 4.101-9.3 9.3 0 5 4.199 9.2 9.3 9.2z" fill="#2B2B2B"></path></g><g id="SvgjsG1172" class="text" transform="translate(257.9501510265047, 64.24939923706054) scale(1)" light-content="false" fill="#FFFFFF"><path d="M-90.06 -13.01C-90.06 -15.9 -90.77 -18.3 -92.21 -20.2C-93.64 -22.1 -96.21 -23.89 -99.9 -25.55C-103.75 -27.3 -106.11 -28.52 -106.97 -29.18C-107.84 -29.84 -108.28 -30.6 -108.28 -31.44C-108.28 -32.22 -107.94 -32.87 -107.25 -33.4C-106.57 -33.93 -105.48 -34.19 -103.97 -34.19C-101.06 -34.19 -97.6 -33.27 -93.6 -31.44L-90.06 -40.37C-94.67 -42.42 -99.19 -43.45 -103.62 -43.45C-108.64 -43.45 -112.58 -42.34 -115.46 -40.14C-118.33 -37.93 -119.76 -34.85 -119.76 -30.91C-119.76 -28.8 -119.43 -26.97 -118.75 -25.43C-118.08 -23.89 -117.04 -22.52 -115.65 -21.33C-114.25 -20.14 -112.16 -18.91 -109.36 -17.64C-106.28 -16.25 -104.38 -15.33 -103.66 -14.88C-102.95 -14.43 -102.43 -13.99 -102.11 -13.55C-101.79 -13.11 -101.63 -12.6 -101.63 -12.01C-101.63 -11.07 -102.03 -10.31 -102.83 -9.71C-103.63 -9.12 -104.89 -8.82 -106.61 -8.82C-108.6 -8.82 -110.79 -9.14 -113.17 -9.77C-115.55 -10.41 -117.85 -11.29 -120.06 -12.42L-120.06 -2.11C-117.97 -1.11 -115.95 -0.42 -114.02 -0.01C-112.09 0.39 -109.69 0.59 -106.84 0.59C-103.42 0.59 -100.45 0.01 -97.91 -1.13C-95.37 -2.27 -93.42 -3.87 -92.08 -5.93C-90.73 -7.99 -90.06 -10.35 -90.06 -13.01Z M-66.59 0L-66.59 -33.19L-78.05 -33.19L-78.05 0ZM-78.34 -41.46C-78.34 -38.1 -76.32 -36.42 -72.28 -36.42C-68.2 -36.42 -66.16 -38.1 -66.16 -41.46C-66.16 -43.13 -66.64 -44.4 -67.62 -45.26C-68.6 -46.12 -70.15 -46.55 -72.28 -46.55C-74.41 -46.55 -75.95 -46.13 -76.91 -45.29C-77.86 -44.45 -78.34 -43.17 -78.34 -41.46Z M-41.14 0L-41.14 -45.59L-52.6 -45.59L-52.6 0Z M-18.5 0L-7.16 0L5.49 -33.19L-6.43 -33.19L-12.32 -13.51C-12.67 -12.31 -12.85 -11.21 -12.85 -10.2L-13.05 -10.2C-13.05 -10.51 -13.08 -10.84 -13.12 -11.21C-13.17 -11.57 -13.23 -11.91 -13.29 -12.23C-13.34 -12.55 -13.4 -12.83 -13.46 -13.07C-13.52 -13.3 -13.56 -13.47 -13.58 -13.56L-19.2 -33.19L-31.16 -33.19Z M31.47 0.59C34.13 0.59 36.42 0.41 38.33 0.06C40.24 -0.29 42.1 -0.93 43.9 -1.85L43.9 -10.08C41.92 -9.16 40.09 -8.51 38.4 -8.13C36.71 -7.75 34.86 -7.56 32.85 -7.56C30.64 -7.56 28.9 -8.09 27.62 -9.14C26.34 -10.2 25.66 -11.65 25.58 -13.51L46.06 -13.51L46.06 -18.6C46.06 -23.51 44.7 -27.26 41.98 -29.87C39.25 -32.48 35.39 -33.78 30.39 -33.78C25.14 -33.78 21.09 -32.28 18.26 -29.28C15.43 -26.28 14.01 -21.98 14.01 -16.38C14.01 -10.95 15.54 -6.76 18.6 -3.82C21.65 -0.88 25.95 0.59 31.47 0.59ZM30.8 -25.99C32.26 -25.99 33.43 -25.51 34.3 -24.55C35.17 -23.59 35.62 -22.31 35.66 -20.71L25.82 -20.71C25.98 -22.53 26.51 -23.86 27.42 -24.71C28.32 -25.56 29.45 -25.99 30.8 -25.99Z M78.58 -33.78C76.84 -33.78 75.12 -33.24 73.41 -32.15C71.7 -31.07 70.36 -29.65 69.41 -27.89L68.85 -27.89L67.06 -33.19L58.54 -33.19L58.54 0L69.99 0L69.99 -16.32C69.99 -18.47 70.56 -20.11 71.69 -21.25C72.83 -22.4 74.64 -22.97 77.14 -22.97C78.8 -22.97 80.1 -22.85 81.04 -22.62L82.06 -33.43L81.42 -33.54C80.52 -33.7 79.57 -33.78 78.58 -33.78Z M101.75 -17.23L101.75 -6.65L109.63 -6.65L109.63 -17.23L120.52 -17.23L120.52 -25.08L109.63 -25.08L109.63 -35.83L101.75 -35.83L101.75 -25.08L90.85 -25.08L90.85 -17.23Z" fill="#FFFFFF"></path></g><g id="SvgjsG1173" class="text" transform="translate(346.42015224720785, 102.19940061035157) scale(1)" light-content="false" fill="#FFFFFF"><path d="M-208.53 0L-205.73 0L-205.73 -17.13L-208.53 -17.13Z M-190.1 0L-190.1 -8.45C-190.1 -11.61 -191.65 -13.2 -194.76 -13.2C-195.63 -13.2 -196.43 -13.03 -197.15 -12.69C-197.87 -12.36 -198.42 -11.88 -198.81 -11.26L-198.96 -11.26L-199.34 -12.96L-201.5 -12.96L-201.5 0L-198.74 0L-198.74 -6.46C-198.74 -8.07 -198.47 -9.23 -197.94 -9.91C-197.4 -10.6 -196.54 -10.95 -195.38 -10.95C-194.51 -10.95 -193.87 -10.7 -193.46 -10.21C-193.06 -9.71 -192.86 -8.97 -192.86 -7.97L-192.86 0Z M-179.76 -10.87L-179.76 -12.96L-182.92 -12.96L-182.92 -13.8C-182.92 -14.58 -182.78 -15.16 -182.5 -15.54C-182.21 -15.93 -181.76 -16.12 -181.13 -16.12C-180.51 -16.12 -179.87 -16.02 -179.19 -15.8L-178.46 -17.88C-179.4 -18.2 -180.35 -18.36 -181.32 -18.36C-182.79 -18.36 -183.89 -17.99 -184.61 -17.26C-185.33 -16.52 -185.69 -15.38 -185.69 -13.85L-185.69 -13.01L-187.82 -12.16L-187.82 -10.87L-185.69 -10.87L-185.69 0L-182.92 0L-182.92 -10.87Z M-166.06 -6.5C-166.06 -8.55 -166.61 -10.18 -167.7 -11.38C-168.79 -12.59 -170.28 -13.2 -172.15 -13.2C-174.12 -13.2 -175.63 -12.61 -176.71 -11.43C-177.79 -10.25 -178.33 -8.61 -178.33 -6.5C-178.33 -5.15 -178.08 -3.96 -177.58 -2.94C-177.08 -1.92 -176.37 -1.13 -175.44 -0.59C-174.51 -0.04 -173.44 0.23 -172.22 0.23C-170.29 0.23 -168.78 -0.36 -167.69 -1.55C-166.6 -2.73 -166.06 -4.39 -166.06 -6.5ZM-175.49 -6.5C-175.49 -7.93 -175.23 -9.03 -174.71 -9.8C-174.2 -10.56 -173.36 -10.95 -172.2 -10.95C-170 -10.95 -168.9 -9.46 -168.9 -6.5C-168.9 -3.51 -169.99 -2.02 -172.18 -2.02C-174.39 -2.02 -175.49 -3.51 -175.49 -6.5Z M-156.32 -13.2C-157.12 -13.2 -157.86 -12.97 -158.55 -12.52C-159.25 -12.06 -159.81 -11.45 -160.24 -10.68L-160.38 -10.68L-160.74 -12.96L-162.9 -12.96L-162.9 0L-160.14 0L-160.14 -6.77C-160.14 -7.92 -159.8 -8.86 -159.12 -9.57C-158.43 -10.29 -157.54 -10.65 -156.44 -10.65C-156.02 -10.65 -155.61 -10.61 -155.22 -10.51L-154.95 -13.08C-155.31 -13.16 -155.77 -13.2 -156.32 -13.2Z M-141.63 0L-141.63 -6.87C-141.63 -8.25 -141.38 -9.28 -140.88 -9.94C-140.39 -10.61 -139.6 -10.95 -138.53 -10.95C-137.74 -10.95 -137.15 -10.7 -136.77 -10.21C-136.39 -9.72 -136.2 -8.98 -136.2 -7.99L-136.2 0L-133.45 0L-133.45 -8.45C-133.45 -10.05 -133.8 -11.24 -134.51 -12.02C-135.21 -12.8 -136.34 -13.2 -137.89 -13.2C-138.79 -13.2 -139.58 -13.02 -140.28 -12.66C-140.97 -12.3 -141.51 -11.8 -141.9 -11.16L-142.08 -11.16C-142.73 -12.52 -144.05 -13.2 -146.04 -13.2C-146.87 -13.2 -147.62 -13.03 -148.3 -12.69C-148.98 -12.36 -149.51 -11.88 -149.87 -11.26L-150.01 -11.26L-150.39 -12.96L-152.55 -12.96L-152.55 0L-149.79 0L-149.79 -6.46C-149.79 -8.07 -149.55 -9.22 -149.05 -9.91C-148.55 -10.6 -147.78 -10.95 -146.71 -10.95C-145.92 -10.95 -145.33 -10.7 -144.96 -10.21C-144.58 -9.72 -144.39 -8.98 -144.39 -7.99L-144.39 0Z M-121.49 0L-119.53 0L-119.53 -8.73C-119.53 -10.27 -119.95 -11.4 -120.79 -12.12C-121.62 -12.84 -122.87 -13.2 -124.52 -13.2C-125.26 -13.2 -126.05 -13.1 -126.88 -12.91C-127.72 -12.72 -128.49 -12.44 -129.19 -12.07L-128.3 -10.1C-127.74 -10.37 -127.15 -10.6 -126.54 -10.79C-125.94 -10.99 -125.3 -11.09 -124.63 -11.09C-123.82 -11.09 -123.22 -10.88 -122.84 -10.47C-122.45 -10.06 -122.26 -9.44 -122.26 -8.61L-122.26 -7.92L-124.49 -7.85C-126.53 -7.79 -128.04 -7.42 -129.03 -6.74C-130.02 -6.06 -130.52 -5.05 -130.52 -3.71C-130.52 -2.46 -130.16 -1.48 -129.45 -0.8C-128.73 -0.11 -127.74 0.23 -126.46 0.23C-125.47 0.23 -124.66 0.09 -124.03 -0.19C-123.39 -0.48 -122.76 -1.02 -122.14 -1.8L-122.04 -1.8ZM-125.6 -1.87C-126.28 -1.87 -126.8 -2.03 -127.14 -2.35C-127.49 -2.67 -127.66 -3.11 -127.66 -3.69C-127.66 -4.49 -127.36 -5.08 -126.77 -5.47C-126.18 -5.85 -125.24 -6.07 -123.94 -6.12L-122.28 -6.19L-122.28 -5.06C-122.28 -4.05 -122.58 -3.27 -123.19 -2.71C-123.79 -2.15 -124.6 -1.87 -125.6 -1.87Z M-110.85 -1.99C-111.39 -1.99 -111.83 -2.15 -112.16 -2.47C-112.49 -2.78 -112.66 -3.27 -112.66 -3.94L-112.66 -10.87L-108.97 -10.87L-108.97 -12.96L-112.66 -12.96L-112.66 -15.84L-114.36 -15.84L-115.29 -13.1L-117.19 -12.09L-117.19 -10.87L-115.42 -10.87L-115.42 -3.89C-115.42 -1.14 -114.12 0.23 -111.51 0.23C-110.99 0.23 -110.5 0.19 -110.02 0.1C-109.54 0.01 -109.14 -0.1 -108.84 -0.23L-108.84 -2.31C-109.51 -2.1 -110.18 -1.99 -110.85 -1.99Z M-103.49 0L-103.49 -12.96L-106.25 -12.96L-106.25 0ZM-106.41 -16.39C-106.41 -15.93 -106.28 -15.56 -106.01 -15.29C-105.74 -15.02 -105.35 -14.88 -104.85 -14.88C-104.37 -14.88 -103.99 -15.02 -103.72 -15.29C-103.45 -15.56 -103.32 -15.93 -103.32 -16.39C-103.32 -16.89 -103.45 -17.27 -103.72 -17.53C-103.99 -17.8 -104.37 -17.93 -104.85 -17.93C-105.35 -17.93 -105.74 -17.8 -106.01 -17.53C-106.28 -17.27 -106.41 -16.89 -106.41 -16.39Z M-88.06 -6.5C-88.06 -8.55 -88.61 -10.18 -89.7 -11.38C-90.79 -12.59 -92.28 -13.2 -94.15 -13.2C-96.12 -13.2 -97.63 -12.61 -98.71 -11.43C-99.79 -10.25 -100.33 -8.61 -100.33 -6.5C-100.33 -5.15 -100.08 -3.96 -99.58 -2.94C-99.08 -1.92 -98.37 -1.13 -97.44 -0.59C-96.51 -0.04 -95.44 0.23 -94.22 0.23C-92.29 0.23 -90.78 -0.36 -89.69 -1.55C-88.6 -2.73 -88.06 -4.39 -88.06 -6.5ZM-97.49 -6.5C-97.49 -7.93 -97.23 -9.03 -96.71 -9.8C-96.2 -10.56 -95.36 -10.95 -94.2 -10.95C-92 -10.95 -90.9 -9.46 -90.9 -6.5C-90.9 -3.51 -91.99 -2.02 -94.18 -2.02C-96.39 -2.02 -97.49 -3.51 -97.49 -6.5Z M-73.49 0L-73.49 -8.45C-73.49 -11.61 -75.05 -13.2 -78.16 -13.2C-79.03 -13.2 -79.83 -13.03 -80.55 -12.69C-81.27 -12.36 -81.82 -11.88 -82.21 -11.26L-82.35 -11.26L-82.74 -12.96L-84.9 -12.96L-84.9 0L-82.14 0L-82.14 -6.46C-82.14 -8.07 -81.87 -9.23 -81.33 -9.91C-80.79 -10.6 -79.94 -10.95 -78.78 -10.95C-77.9 -10.95 -77.27 -10.7 -76.86 -10.21C-76.46 -9.71 -76.26 -8.97 -76.26 -7.97L-76.26 0Z M-57.22 0L-57.22 -14.73L-52.18 -14.73L-52.18 -17.13L-65.06 -17.13L-65.06 -14.73L-60.02 -14.73L-60.02 0Z M-45.86 0.23C-44.98 0.23 -44.19 0.17 -43.51 0.04C-42.82 -0.1 -42.14 -0.32 -41.47 -0.64L-41.47 -2.88C-42.22 -2.55 -42.93 -2.31 -43.59 -2.16C-44.25 -2.02 -44.97 -1.95 -45.73 -1.95C-46.9 -1.95 -47.8 -2.28 -48.44 -2.96C-49.08 -3.63 -49.42 -4.6 -49.46 -5.86L-40.82 -5.86L-40.82 -7.35C-40.82 -9.17 -41.32 -10.6 -42.31 -11.64C-43.3 -12.68 -44.65 -13.2 -46.37 -13.2C-48.21 -13.2 -49.66 -12.59 -50.71 -11.38C-51.77 -10.17 -52.29 -8.5 -52.29 -6.39C-52.29 -4.32 -51.73 -2.71 -50.59 -1.53C-49.45 -0.35 -47.88 0.23 -45.86 0.23ZM-46.37 -11.11C-45.49 -11.11 -44.8 -10.83 -44.3 -10.28C-43.8 -9.73 -43.54 -8.92 -43.53 -7.85L-49.41 -7.85C-49.31 -8.91 -49 -9.72 -48.47 -10.28C-47.94 -10.83 -47.24 -11.11 -46.37 -11.11Z M-32.47 0.23C-31.67 0.23 -30.99 0.17 -30.43 0.05C-29.87 -0.08 -29.35 -0.29 -28.86 -0.57L-28.86 -2.98C-29.95 -2.37 -31.11 -2.06 -32.34 -2.06C-33.42 -2.06 -34.23 -2.43 -34.79 -3.16C-35.35 -3.89 -35.63 -4.98 -35.63 -6.43C-35.63 -9.41 -34.51 -10.9 -32.27 -10.9C-31.51 -10.9 -30.55 -10.67 -29.38 -10.22L-28.55 -12.43C-29.65 -12.94 -30.88 -13.2 -32.24 -13.2C-34.26 -13.2 -35.8 -12.61 -36.87 -11.44C-37.93 -10.27 -38.47 -8.59 -38.47 -6.41C-38.47 -4.27 -37.96 -2.63 -36.94 -1.48C-35.92 -0.34 -34.43 0.23 -32.47 0.23Z M-14.41 0L-14.41 -8.45C-14.41 -11.61 -15.98 -13.2 -19.12 -13.2C-20.01 -13.2 -20.79 -13.02 -21.46 -12.68C-22.12 -12.34 -22.65 -11.85 -23.02 -11.23L-23.2 -11.23C-23.1 -12.07 -23.06 -12.86 -23.06 -13.61L-23.06 -18.23L-25.81 -18.23L-25.81 0L-23.06 0L-23.06 -6.43C-23.06 -8.06 -22.79 -9.22 -22.24 -9.91C-21.7 -10.6 -20.85 -10.95 -19.69 -10.95C-18.82 -10.95 -18.18 -10.7 -17.78 -10.21C-17.38 -9.71 -17.17 -8.97 -17.17 -7.97L-17.17 0Z M0.83 0L0.83 -8.45C0.83 -11.61 -0.73 -13.2 -3.84 -13.2C-4.71 -13.2 -5.51 -13.03 -6.23 -12.69C-6.95 -12.36 -7.5 -11.88 -7.89 -11.26L-8.03 -11.26L-8.42 -12.96L-10.58 -12.96L-10.58 0L-7.82 0L-7.82 -6.46C-7.82 -8.07 -7.55 -9.23 -7.01 -9.91C-6.47 -10.6 -5.62 -10.95 -4.46 -10.95C-3.58 -10.95 -2.95 -10.7 -2.54 -10.21C-2.14 -9.71 -1.94 -8.97 -1.94 -7.97L-1.94 0Z M16.15 -6.5C16.15 -8.55 15.61 -10.18 14.51 -11.38C13.42 -12.59 11.94 -13.2 10.06 -13.2C8.1 -13.2 6.58 -12.61 5.5 -11.43C4.42 -10.25 3.88 -8.61 3.88 -6.5C3.88 -5.15 4.13 -3.96 4.63 -2.94C5.13 -1.92 5.85 -1.13 6.78 -0.59C7.71 -0.04 8.78 0.23 9.99 0.23C11.93 0.23 13.44 -0.36 14.53 -1.55C15.61 -2.73 16.15 -4.39 16.15 -6.5ZM6.72 -6.5C6.72 -7.93 6.98 -9.03 7.5 -9.8C8.02 -10.56 8.86 -10.95 10.01 -10.95C12.22 -10.95 13.32 -9.46 13.32 -6.5C13.32 -3.51 12.22 -2.02 10.04 -2.02C7.83 -2.02 6.72 -3.51 6.72 -6.5Z M22.07 0L22.07 -18.23L19.32 -18.23L19.32 0Z M37.51 -6.5C37.51 -8.55 36.96 -10.18 35.87 -11.38C34.77 -12.59 33.29 -13.2 31.41 -13.2C29.45 -13.2 27.93 -12.61 26.85 -11.43C25.78 -10.25 25.24 -8.61 25.24 -6.5C25.24 -5.15 25.49 -3.96 25.99 -2.94C26.49 -1.92 27.2 -1.13 28.13 -0.59C29.06 -0.04 30.13 0.23 31.34 0.23C33.28 0.23 34.79 -0.36 35.88 -1.55C36.96 -2.73 37.51 -4.39 37.51 -6.5ZM28.07 -6.5C28.07 -7.93 28.33 -9.03 28.85 -9.8C29.37 -10.56 30.21 -10.95 31.37 -10.95C33.57 -10.95 34.67 -9.46 34.67 -6.5C34.67 -3.51 33.58 -2.02 31.39 -2.02C29.18 -2.02 28.07 -3.51 28.07 -6.5Z M51.62 -12.96L47.13 -12.96C46.92 -13.02 46.62 -13.07 46.22 -13.12C45.82 -13.17 45.43 -13.2 45.06 -13.2C43.42 -13.2 42.16 -12.81 41.27 -12.04C40.39 -11.26 39.94 -10.17 39.94 -8.77C39.94 -7.89 40.15 -7.13 40.57 -6.47C40.99 -5.82 41.53 -5.35 42.21 -5.06C41.67 -4.73 41.26 -4.4 40.99 -4.07C40.71 -3.73 40.58 -3.32 40.58 -2.84C40.58 -2.45 40.7 -2.09 40.93 -1.74C41.17 -1.39 41.47 -1.14 41.84 -0.98C40.94 -0.77 40.23 -0.4 39.73 0.15C39.22 0.69 38.97 1.36 38.97 2.16C38.97 3.31 39.44 4.2 40.37 4.83C41.29 5.45 42.64 5.77 44.41 5.77C46.7 5.77 48.45 5.37 49.66 4.57C50.87 3.77 51.47 2.64 51.47 1.17C51.47 0.02 51.1 -0.86 50.36 -1.46C49.62 -2.07 48.53 -2.38 47.1 -2.38L44.84 -2.38C44.1 -2.38 43.59 -2.45 43.31 -2.6C43.04 -2.75 42.9 -2.97 42.9 -3.27C42.9 -3.76 43.19 -4.19 43.79 -4.56C44.12 -4.5 44.5 -4.46 44.91 -4.46C46.53 -4.46 47.8 -4.85 48.72 -5.61C49.64 -6.38 50.1 -7.43 50.1 -8.77C50.1 -9.21 50.04 -9.63 49.9 -10.03C49.77 -10.43 49.6 -10.77 49.4 -11.04L51.62 -11.45ZM41.43 2.02C41.43 1.38 41.66 0.88 42.13 0.51C42.59 0.14 43.22 -0.05 44.01 -0.05L46.1 -0.05C47.19 -0.05 47.94 0.07 48.34 0.31C48.74 0.55 48.94 0.95 48.94 1.51C48.94 2.22 48.58 2.79 47.84 3.22C47.11 3.65 45.99 3.87 44.49 3.87C43.52 3.87 42.77 3.71 42.23 3.39C41.7 3.07 41.43 2.61 41.43 2.02ZM42.62 -8.77C42.62 -9.63 42.82 -10.29 43.23 -10.75C43.64 -11.2 44.24 -11.43 45.04 -11.43C45.85 -11.43 46.45 -11.2 46.84 -10.74C47.23 -10.28 47.43 -9.63 47.43 -8.79C47.43 -7.09 46.63 -6.23 45.04 -6.23C44.26 -6.23 43.66 -6.45 43.24 -6.89C42.82 -7.33 42.62 -7.95 42.62 -8.77Z M52.05 -12.96L57.25 0L56.77 1.22C56.23 2.76 55.3 3.53 53.97 3.53C53.44 3.53 52.97 3.48 52.55 3.39L52.55 5.57C53.13 5.7 53.72 5.77 54.33 5.77C56.69 5.77 58.37 4.42 59.37 1.72L64.92 -12.96L61.94 -12.96C60.14 -7.75 59.15 -4.84 58.96 -4.22C58.78 -3.61 58.65 -3.09 58.58 -2.66L58.48 -2.66C58.35 -3.58 58.08 -4.57 57.69 -5.61L55.05 -12.96Z M80.7 -14.98C81.41 -14.98 82.09 -14.87 82.73 -14.67C83.38 -14.46 83.99 -14.22 84.57 -13.95L85.58 -16.28C84.09 -17.01 82.47 -17.38 80.72 -17.38C79.06 -17.38 77.61 -17.02 76.38 -16.31C75.14 -15.6 74.2 -14.58 73.55 -13.24C72.89 -11.91 72.57 -10.35 72.57 -8.57C72.57 -5.74 73.24 -3.56 74.58 -2.04C75.93 -0.53 77.85 0.23 80.36 0.23C82.06 0.23 83.59 -0.02 84.93 -0.53L84.93 -2.93C84.2 -2.7 83.49 -2.52 82.81 -2.37C82.13 -2.23 81.43 -2.16 80.7 -2.16C79.02 -2.16 77.74 -2.7 76.85 -3.77C75.96 -4.85 75.52 -6.44 75.52 -8.54C75.52 -10.55 75.98 -12.12 76.9 -13.27C77.83 -14.41 79.09 -14.98 80.7 -14.98Z M99.83 -6.5C99.83 -8.55 99.28 -10.18 98.19 -11.38C97.09 -12.59 95.61 -13.2 93.73 -13.2C91.77 -13.2 90.25 -12.61 89.17 -11.43C88.1 -10.25 87.56 -8.61 87.56 -6.5C87.56 -5.15 87.81 -3.96 88.31 -2.94C88.81 -1.92 89.52 -1.13 90.45 -0.59C91.38 -0.04 92.45 0.23 93.66 0.23C95.6 0.23 97.11 -0.36 98.2 -1.55C99.28 -2.73 99.83 -4.39 99.83 -6.5ZM90.39 -6.5C90.39 -7.93 90.65 -9.03 91.17 -9.8C91.69 -10.56 92.53 -10.95 93.69 -10.95C95.89 -10.95 96.99 -9.46 96.99 -6.5C96.99 -3.51 95.9 -2.02 93.71 -2.02C91.5 -2.02 90.39 -3.51 90.39 -6.5Z M109.56 -13.2C108.77 -13.2 108.02 -12.97 107.33 -12.52C106.64 -12.06 106.08 -11.45 105.65 -10.68L105.51 -10.68L105.15 -12.96L102.99 -12.96L102.99 0L105.74 0L105.74 -6.77C105.74 -7.92 106.09 -8.86 106.77 -9.57C107.45 -10.29 108.35 -10.65 109.45 -10.65C109.87 -10.65 110.28 -10.61 110.67 -10.51L110.94 -13.08C110.58 -13.16 110.12 -13.2 109.56 -13.2Z M119.91 0.23C121.53 0.23 122.8 -0.36 123.71 -1.55C124.63 -2.73 125.09 -4.39 125.09 -6.5C125.09 -8.62 124.64 -10.27 123.74 -11.44C122.84 -12.61 121.58 -13.2 119.96 -13.2C118.24 -13.2 116.95 -12.54 116.09 -11.23L115.95 -11.23C115.76 -12.14 115.63 -12.72 115.56 -12.96L113.34 -12.96L113.34 5.77L116.09 5.77L116.09 0.46C116.09 0.22 116.04 -0.44 115.93 -1.54L116.09 -1.54C117 -0.36 118.27 0.23 119.91 0.23ZM119.24 -10.95C120.24 -10.95 120.99 -10.57 121.5 -9.83C122.01 -9.08 122.27 -7.98 122.27 -6.53C122.27 -5.08 122.01 -3.97 121.49 -3.19C120.98 -2.41 120.24 -2.02 119.29 -2.02C118.16 -2.02 117.34 -2.37 116.84 -3.08C116.34 -3.78 116.09 -4.93 116.09 -6.5L116.09 -6.91C116.09 -8.32 116.34 -9.34 116.85 -9.98C117.35 -10.63 118.15 -10.95 119.24 -10.95Z M139.79 -6.5C139.79 -8.55 139.24 -10.18 138.15 -11.38C137.05 -12.59 135.57 -13.2 133.69 -13.2C131.73 -13.2 130.21 -12.61 129.13 -11.43C128.06 -10.25 127.52 -8.61 127.52 -6.5C127.52 -5.15 127.77 -3.96 128.27 -2.94C128.77 -1.92 129.48 -1.13 130.41 -0.59C131.34 -0.04 132.41 0.23 133.62 0.23C135.56 0.23 137.07 -0.36 138.16 -1.55C139.24 -2.73 139.79 -4.39 139.79 -6.5ZM130.35 -6.5C130.35 -7.93 130.61 -9.03 131.13 -9.8C131.65 -10.56 132.49 -10.95 133.65 -10.95C135.85 -10.95 136.95 -9.46 136.95 -6.5C136.95 -3.51 135.86 -2.02 133.67 -2.02C131.46 -2.02 130.35 -3.51 130.35 -6.5Z M149.53 -13.2C148.73 -13.2 147.98 -12.97 147.29 -12.52C146.6 -12.06 146.04 -11.45 145.61 -10.68L145.47 -10.68L145.11 -12.96L142.95 -12.96L142.95 0L145.71 0L145.71 -6.77C145.71 -7.92 146.05 -8.86 146.73 -9.57C147.41 -10.29 148.31 -10.65 149.41 -10.65C149.83 -10.65 150.24 -10.61 150.63 -10.51L150.9 -13.08C150.54 -13.16 150.08 -13.2 149.53 -13.2Z M160.93 0L162.9 0L162.9 -8.73C162.9 -10.27 162.48 -11.4 161.64 -12.12C160.8 -12.84 159.55 -13.2 157.9 -13.2C157.16 -13.2 156.37 -13.1 155.54 -12.91C154.7 -12.72 153.93 -12.44 153.23 -12.07L154.12 -10.1C154.68 -10.37 155.27 -10.6 155.88 -10.79C156.49 -10.99 157.12 -11.09 157.79 -11.09C158.6 -11.09 159.2 -10.88 159.59 -10.47C159.97 -10.06 160.17 -9.44 160.17 -8.61L160.17 -7.92L157.93 -7.85C155.9 -7.79 154.38 -7.42 153.39 -6.74C152.4 -6.06 151.9 -5.05 151.9 -3.71C151.9 -2.46 152.26 -1.48 152.98 -0.8C153.69 -0.11 154.69 0.23 155.96 0.23C156.95 0.23 157.76 0.09 158.4 -0.19C159.03 -0.48 159.66 -1.02 160.28 -1.8L160.38 -1.8ZM156.83 -1.87C156.14 -1.87 155.62 -2.03 155.28 -2.35C154.94 -2.67 154.76 -3.11 154.76 -3.69C154.76 -4.49 155.06 -5.08 155.65 -5.47C156.24 -5.85 157.18 -6.07 158.48 -6.12L160.14 -6.19L160.14 -5.06C160.14 -4.05 159.84 -3.27 159.23 -2.71C158.63 -2.15 157.83 -1.87 156.83 -1.87Z M171.57 -1.99C171.03 -1.99 170.59 -2.15 170.26 -2.47C169.93 -2.78 169.76 -3.27 169.76 -3.94L169.76 -10.87L173.46 -10.87L173.46 -12.96L169.76 -12.96L169.76 -15.84L168.06 -15.84L167.13 -13.1L165.23 -12.09L165.23 -10.87L167 -10.87L167 -3.89C167 -1.14 168.3 0.23 170.91 0.23C171.43 0.23 171.93 0.19 172.41 0.1C172.89 0.01 173.28 -0.1 173.58 -0.23L173.58 -2.31C172.91 -2.1 172.24 -1.99 171.57 -1.99Z M178.93 0L178.93 -12.96L176.17 -12.96L176.17 0ZM176.01 -16.39C176.01 -15.93 176.14 -15.56 176.41 -15.29C176.68 -15.02 177.07 -14.88 177.57 -14.88C178.05 -14.88 178.43 -15.02 178.7 -15.29C178.97 -15.56 179.1 -15.93 179.1 -16.39C179.1 -16.89 178.97 -17.27 178.7 -17.53C178.43 -17.8 178.05 -17.93 177.57 -17.93C177.07 -17.93 176.68 -17.8 176.41 -17.53C176.14 -17.27 176.01 -16.89 176.01 -16.39Z M194.36 -6.5C194.36 -8.55 193.81 -10.18 192.72 -11.38C191.63 -12.59 190.14 -13.2 188.27 -13.2C186.31 -13.2 184.79 -12.61 183.71 -11.43C182.63 -10.25 182.09 -8.61 182.09 -6.5C182.09 -5.15 182.34 -3.96 182.84 -2.94C183.34 -1.92 184.06 -1.13 184.99 -0.59C185.92 -0.04 186.99 0.23 188.2 0.23C190.13 0.23 191.65 -0.36 192.73 -1.55C193.82 -2.73 194.36 -4.39 194.36 -6.5ZM184.93 -6.5C184.93 -7.93 185.19 -9.03 185.71 -9.8C186.23 -10.56 187.06 -10.95 188.22 -10.95C190.42 -10.95 191.53 -9.46 191.53 -6.5C191.53 -3.51 190.43 -2.02 188.24 -2.02C186.03 -2.02 184.93 -3.51 184.93 -6.5Z M208.93 0L208.93 -8.45C208.93 -11.61 207.37 -13.2 204.26 -13.2C203.39 -13.2 202.59 -13.03 201.87 -12.69C201.15 -12.36 200.6 -11.88 200.21 -11.26L200.07 -11.26L199.68 -12.96L197.53 -12.96L197.53 0L200.28 0L200.28 -6.46C200.28 -8.07 200.55 -9.23 201.09 -9.91C201.63 -10.6 202.48 -10.95 203.64 -10.95C204.52 -10.95 205.16 -10.7 205.56 -10.21C205.96 -9.71 206.16 -8.97 206.16 -7.97L206.16 0Z" fill="#FFFFFF"></path></g></g></svg>