<svg xmlns:xlink="http://www.w3.org/1999/xlink" id="SvgjsSvg2163" width="300" height="148" xmlns="http://www.w3.org/2000/svg" version="1.1" xlink="http://www.w3.org/1999/xlink" xmlns:svgjs="http://svgjs.com/svgjs" preserveAspectRatio="xMidYMid meet" viewBox="0.000004739647010865156 0 150.69920349121094 146.99998474121094" overflow="visible"><defs id="SvgjsDefs2164"></defs><g id="SvgjsG2165" transform="scale(0.6212350760140094)" opacity="1"><g id="SvgjsG2166" class="cJdR8fp6n" transform="translate(47.34122493917086, 0) scale(1.6806540264659011)" light-content="false" non-strokable="false" fill="#8D10D1"><path d="M44 0l43.301 25v50L44 100 .699 75V25z" fill="#8D10D1"></path></g><g id="SvgjsG2167" class="Ca-4YeX__d" transform="translate(64.3147944010546, 27.06091330873266) scale(1.1394584934757606)" light-content="true" non-strokable="false" fill="#FFFFFF"><path d="M79.5 42.5c-4.5 0-8.2 3.2-9.102 7.398h-5.601L52.602 37.8l5.601-5.601c1.2.699 2.602 1.199 4.102 1.199 4.3 0 7.898-3.5 7.898-7.898 0-4.301-3.5-7.899-7.898-7.899-4.3 0-7.898 3.5-7.898 7.899 0 1.5.398 2.898 1.199 4.101L50 35.2l-3.398-3.4c-.102-.102-.2-.102-.2-.2l-9.199-9.199c-.199-.2-.398-.3-.601-.398C36.399 22 36.2 22 36 22h-6.398c-.8-4.2-4.602-7.4-9.102-7.4-5.101 0-9.3 4.102-9.3 9.301 0 5.102 4.101 9.3 9.3 9.3 4.5 0 8.2-3.198 9.102-7.397h5.602l18.102 18.102c.101.101.199.101.199.199l9.199 9.199c.2.2.398.3.602.398.199.102.398.102.699.102h6.398c.8 4.2 4.602 7.398 9.102 7.398 5.101 0 9.3-4.101 9.3-9.3-.003-5.204-4.203-9.403-9.304-9.403zm-59 15c4.5 0 8.2-3.2 9.102-7.398h5.601l12.2 12.199-5.602 5.601c-1.2-.699-2.602-1.199-4.102-1.199-4.3 0-7.898 3.5-7.898 7.898 0 4.301 3.5 7.899 7.898 7.899 4.3 0 7.898-3.5 7.898-7.899 0-1.5-.398-2.898-1.199-4.101L50 64.898l3.398 3.399c.102.101.2.101.2.199l9.199 9.199c.199.2.398.3.601.398C63.601 78 63.801 78 64 78h6.398c.8 4.199 4.602 7.398 9.102 7.398 5.101 0 9.3-4.101 9.3-9.3 0-5.102-4.101-9.301-9.3-9.301-4.5 0-8.2 3.199-9.102 7.398h-5.601L46.699 56.199c-.102-.102-.2-.102-.2-.2L37.3 46.8c-.2-.199-.398-.3-.601-.398-.2-.102-.399-.102-.7-.102h-6.398c-.902-4.199-4.602-7.3-9.102-7.3-5.101 0-9.3 4.101-9.3 9.3 0 5 4.199 9.2 9.3 9.2z" fill="#FFFFFF"></path></g><g id="SvgjsG2168" class="text" transform="translate(120.77999877929688, 235.96540417246902) scale(1)" light-content="false" fill="#333333"><path d="M-120.78 -11.4L-120.78 -2.82C-119.5 -1.82 -117.4 -0.92 -114.48 -0.12C-112.48 0.4 -110.46 0.66 -108.42 0.66C-103.94 0.66 -100.52 -0.44 -98.16 -2.64C-95.8 -4.84 -94.62 -7.7 -94.62 -11.22C-94.62 -17.26 -98.38 -21.66 -105.9 -24.42C-108.98 -25.54 -111.25 -26.73 -112.71 -27.99C-114.17 -29.25 -114.9 -30.84 -114.9 -32.76C-114.9 -36.2 -112.2 -37.92 -106.8 -37.92C-104.16 -37.92 -102.02 -37.5 -100.38 -36.66L-99 -31.8L-95.46 -31.92L-95.46 -40.14C-95.78 -40.34 -96.12 -40.52 -96.48 -40.68C-99.6 -42.16 -103.36 -42.9 -107.76 -42.9C-111.36 -42.9 -114.4 -41.87 -116.88 -39.81C-119.36 -37.75 -120.6 -34.76 -120.6 -30.84C-120.6 -26.16 -117.16 -22.52 -110.28 -19.92C-106.64 -18.56 -104.07 -17.07 -102.57 -15.45C-101.07 -13.83 -100.32 -12.11 -100.32 -10.29C-100.32 -8.47 -101.01 -6.96 -102.39 -5.76C-103.77 -4.56 -105.6 -3.96 -107.88 -3.96C-111.4 -3.96 -113.94 -4.58 -115.5 -5.82L-117.18 -11.4Z M-70.8 0L-70.8 -2.64L-76.26 -4.62L-76.26 -37.74L-70.8 -39.72L-70.8 -42.36L-87.78 -42.36L-87.78 -39.72L-82.32 -37.74L-82.32 -4.62L-87.78 -2.64L-87.78 0Z M-30.72 0L-30.72 -9.72L-33.84 -9.72L-35.82 -4.56L-53.16 -4.56L-53.16 -37.74L-47.7 -39.72L-47.7 -42.36L-64.68 -42.36L-64.68 -39.72L-59.22 -37.74L-59.22 -4.62L-64.68 -2.64L-64.68 0Z M-35.4 -42.36L-35.4 -39.24L-29.04 -36.96L-14.88 0L-7.68 0L6.48 -36.96L12.84 -39.24L12.84 -42.36L-5.34 -42.36L-5.34 -39.42L0.36 -37.14L-10.86 -6.9L-11.16 -7.56L-21.84 -37.14L-16.38 -39.42L-16.38 -42.36Z M49.08 0L49.08 -9.72L45.96 -9.72L43.98 -4.56L26.64 -4.56L26.64 -19.2L40.44 -19.2L41.58 -15.18L44.34 -15.18L44.34 -27L41.58 -27L40.44 -23.52L26.64 -23.52L26.64 -37.8L43.98 -37.8L45.96 -32.64L49.08 -32.64L49.08 -42.36L15.12 -42.36L15.12 -39.72L20.58 -37.74L20.58 -4.62L15.12 -2.64L15.12 0Z M94.74 0L94.74 -2.88L89.28 -4.86L80.58 -18.48C85.86 -20.36 88.5 -24.12 88.5 -29.76C88.5 -34 87.19 -37.16 84.57 -39.24C81.95 -41.32 78.58 -42.36 74.46 -42.36L55.74 -42.36L55.74 -39.72L61.2 -37.74L61.2 -4.62L55.74 -2.64L55.74 0L72.72 0L72.72 -2.64L67.26 -4.62L67.26 -17.34L74.76 -17.34L82.8 -4.44L78.96 -2.88L78.96 0ZM67.32 -21.72L67.32 -37.86L71.64 -37.86C74.8 -37.86 77.42 -37.22 79.5 -35.94C81.58 -34.66 82.62 -32.62 82.62 -29.82C82.62 -27.02 81.83 -24.97 80.25 -23.67C78.67 -22.37 76.68 -21.72 74.28 -21.72Z M121.8 -18.72L121.8 -22.98L112.02 -22.98L112.02 -32.76L107.76 -32.76L107.76 -22.98L97.98 -22.98L97.98 -18.72L107.76 -18.72L107.76 -8.94L112.02 -8.94L112.02 -18.72Z" fill="#333333"></path></g></g></svg>